<?xml version="1.0" standalone="no"?>
<!DOCTYPE svg PUBLIC "-//W3C//DTD SVG 20010904//EN"
 "http://www.w3.org/TR/2001/REC-SVG-20010904/DTD/svg10.dtd">
<svg version="1.0" xmlns="http://www.w3.org/2000/svg"
 width="1024.000000pt" height="1024.000000pt" viewBox="0 0 1024.000000 1024.000000"
 preserveAspectRatio="xMidYMid meet">

<g transform="translate(0.000000,1024.000000) scale(0.100000,-0.100000)"
fill="#000000" stroke="none">
<path d="M4922 8419 c-276 -23 -605 -123 -835 -255 -96 -55 -270 -179 -310
-222 -53 -56 -45 -191 24 -390 68 -195 220 -456 397 -679 77 -97 89 -134 54
-166 -33 -30 -74 -21 -118 26 -166 174 -366 501 -458 749 -36 97 -72 268 -62
294 11 30 -11 10 -66 -57 -69 -84 -72 -103 -33 -255 66 -258 197 -502 439
-813 107 -138 116 -165 65 -203 -24 -18 -29 -19 -56 -5 -40 21 -95 83 -200
223 -174 235 -297 483 -361 728 l-27 105 -58 -94 -58 -93 46 -139 c25 -76 74
-197 109 -268 70 -140 207 -357 299 -470 l57 -70 -38 -3 c-20 -2 -61 -1 -91 3
-63 8 -80 24 -170 155 -127 186 -211 362 -258 540 l-27 102 -34 -88 c-45 -118
-99 -336 -112 -456 -5 -54 -10 -149 -10 -213 l0 -115 561 0 c339 0 567 4 578
10 10 5 55 58 99 117 85 113 121 143 169 143 37 0 89 -32 106 -67 8 -15 56
-154 107 -308 72 -215 95 -274 101 -258 4 12 24 89 43 170 19 81 67 281 105
443 39 162 90 387 115 500 25 113 66 293 92 400 41 169 51 198 76 223 26 26
34 29 74 24 52 -5 88 -34 104 -81 19 -58 131 -619 220 -1106 111 -600 101
-555 110 -539 4 8 56 172 116 364 93 299 113 355 140 385 25 27 39 34 68 34
63 0 84 -27 186 -232 52 -104 101 -197 109 -206 12 -14 51 -16 297 -16 202 0
285 -3 290 -12 7 -11 -3 -21 -134 -128 l-73 -60 -241 0 -240 0 -25 28 c-14 15
-52 76 -84 137 -33 63 -60 103 -63 95 -3 -8 -64 -202 -136 -430 -73 -228 -138
-427 -146 -442 -46 -90 -177 -71 -203 30 -6 20 -31 159 -56 307 -43 254 -103
579 -196 1055 -22 113 -42 216 -45 230 -4 17 -18 -28 -44 -145 -36 -163 -93
-400 -272 -1135 -76 -316 -83 -337 -114 -367 -37 -38 -88 -44 -123 -15 -20 16
-124 300 -241 660 -24 72 -47 132 -51 132 -4 0 -33 -29 -64 -65 -40 -45 -68
-68 -94 -75 -24 -7 -233 -10 -624 -8 l-587 3 6 -45 c53 -392 237 -793 481
-1051 l53 -56 -52 -6 c-104 -13 -366 -8 -446 9 -262 53 -411 236 -387 474 10
105 52 247 106 360 57 120 42 108 -67 -52 -188 -279 -266 -551 -219 -771 20
-94 58 -160 140 -242 113 -113 293 -191 535 -232 190 -32 565 -15 838 37 52 9
55 9 165 -44 644 -310 1345 -294 1942 43 l100 56 -100 7 c-148 9 -342 72 -525
169 -100 54 -340 202 -340 210 0 4 32 18 71 33 l70 26 92 -54 c344 -200 597
-296 785 -296 l85 0 68 55 c101 84 101 82 10 77 -272 -16 -664 168 -1276 597
-98 69 -183 129 -188 132 -14 10 21 107 42 118 14 8 46 -11 152 -86 408 -290
731 -484 963 -577 147 -59 239 -80 363 -80 l112 -1 41 40 c23 22 59 61 80 86
l39 46 -52 -14 c-109 -28 -255 -10 -427 54 -110 41 -356 163 -449 223 l-64 41
37 38 c69 70 69 70 181 0 200 -126 449 -227 613 -249 158 -21 243 10 304 113
150 252 249 551 280 847 l12 115 76 90 c238 281 399 557 462 793 11 45 22 124
25 192 6 143 -11 234 -67 346 -55 113 -161 213 -292 277 -174 86 -337 114
-608 104 -175 -6 -278 -25 -144 -26 155 -2 349 -51 463 -119 86 -50 173 -145
201 -219 31 -79 37 -197 16 -288 -28 -119 -194 -434 -215 -408 -4 4 -22 49
-40 98 -69 189 -202 422 -326 571 -89 107 -141 159 -260 261 -340 294 -769
474 -1220 512 -135 12 -214 12 -363 0z m-656 -2545 c71 -58 148 -123 172 -143
37 -30 51 -55 92 -154 27 -64 43 -114 37 -110 -44 25 -604 470 -627 498 -11
13 -1 15 93 15 l105 0 128 -106z m967 49 c24 -21 78 -65 119 -97 74 -58 77
-61 83 -110 3 -28 8 -68 11 -90 l6 -38 -63 43 c-92 62 -213 154 -259 198 -45
43 -49 66 -19 105 30 38 68 34 122 -11z m-174 -689 l84 -57 -27 -14 c-44 -23
-243 -98 -365 -137 -254 -82 -537 -134 -774 -141 -72 -2 -136 -1 -141 2 -5 3
47 21 115 39 198 54 413 129 719 250 157 63 290 114 295 114 6 0 48 -25 94
-56z"/>
<path d="M4415 3840 c-124 -25 -226 -81 -305 -167 -96 -105 -141 -226 -141
-383 -1 -110 12 -171 53 -257 78 -162 237 -268 438 -294 172 -21 319 29 429
146 33 36 61 70 61 75 0 5 -35 38 -77 74 l-77 64 -45 -48 c-66 -69 -136 -100
-232 -100 -65 0 -85 4 -137 31 -118 58 -175 160 -175 309 1 151 58 252 178
311 58 29 70 31 142 27 107 -5 169 -38 229 -122 l21 -29 79 63 c44 35 83 67
88 71 11 9 -43 87 -89 127 -101 89 -287 132 -440 102z"/>
<path d="M1745 3818 c2 -7 40 -123 84 -258 43 -135 121 -372 171 -527 l91
-283 108 0 107 0 73 213 c40 116 92 267 114 334 23 68 44 123 47 123 3 0 29
-73 59 -163 30 -89 81 -240 114 -334 l59 -173 107 0 107 0 168 523 c93 287
171 530 174 540 4 16 -5 17 -124 15 l-128 -3 -51 -165 c-28 -91 -76 -249 -106
-352 -47 -165 -69 -219 -69 -175 0 7 -36 129 -80 272 -45 143 -92 297 -106
343 l-25 82 -98 0 -98 0 -77 -247 c-43 -137 -94 -300 -114 -363 -19 -63 -38
-108 -41 -100 -2 8 -50 170 -106 360 l-100 345 -132 3 c-104 2 -132 0 -128
-10z"/>
<path d="M3530 3290 l0 -540 115 0 115 0 0 540 0 540 -115 0 -115 0 0 -540z"/>
<path d="M5180 3290 l0 -540 115 0 115 0 0 256 0 256 88 -113 c48 -63 136
-178 195 -256 l108 -143 155 0 155 0 -80 98 c-44 53 -149 182 -234 287 l-156
189 53 61 c29 33 127 147 219 253 l168 192 -138 0 -138 0 -195 -228 -195 -227
-3 228 -2 227 -115 0 -115 0 0 -540z"/>
<path d="M6278 3290 l2 -540 364 0 364 0 -2 108 -1 107 -253 0 -252 0 0 118 0
117 235 0 235 0 0 100 0 100 -235 0 -235 0 0 110 0 110 255 0 255 0 0 105 0
105 -367 0 -368 0 3 -540z"/>
<path d="M7190 3725 l0 -105 160 0 160 0 0 -435 0 -435 115 0 115 0 -3 435 -2
435 158 0 157 0 0 105 0 105 -430 0 -430 0 0 -105z"/>
<path d="M5953 2453 c15 -2 37 -2 50 0 12 2 0 4 -28 4 -27 0 -38 -2 -22 -4z"/>
<path d="M5878 2443 c7 -3 16 -2 19 1 4 3 -2 6 -13 5 -11 0 -14 -3 -6 -6z"/>
<path d="M6058 2443 c7 -3 16 -2 19 1 4 3 -2 6 -13 5 -11 0 -14 -3 -6 -6z"/>
<path d="M2842 2058 l3 -383 2 377 3 378 188 3 187 2 -192 3 -193 2 2 -382z"/>
<path d="M3808 2433 c23 -2 61 -2 85 0 23 2 4 4 -43 4 -47 0 -66 -2 -42 -4z"/>
<path d="M4293 2433 c20 -2 54 -2 75 0 20 2 3 4 -38 4 -41 0 -58 -2 -37 -4z"/>
<path d="M4414 2175 c0 -148 2 -211 3 -138 2 72 2 194 0 270 -1 76 -3 17 -3
-132z"/>
<path d="M4907 2433 l73 -4 3 -302 2 -302 3 308 2 307 -77 -2 -78 -2 72 -3z"/>
<path d="M6625 2060 c0 -212 1 -298 2 -193 2 106 2 280 0 385 -1 106 -2 20 -2
-192z"/>
<path d="M6762 2433 c70 -2 187 -2 260 0 73 1 16 3 -127 3 -143 0 -203 -2
-133 -3z"/>
<path d="M3245 2420 c27 -12 43 -12 25 0 -8 5 -22 9 -30 9 -10 0 -8 -3 5 -9z"/>
<path d="M4845 2050 c0 -206 1 -291 2 -188 2 104 2 272 0 375 -1 104 -2 19 -2
-187z"/>
<path d="M6151 2416 c2 -2 15 -9 29 -15 24 -11 24 -11 6 3 -16 13 -49 24 -35
12z"/>
<path d="M5751 2375 c-17 -20 -31 -39 -31 -42 0 -4 3 -3 8 3 4 5 20 24 36 42
17 17 27 32 24 32 -3 0 -20 -16 -37 -35z"/>
<path d="M3921 2374 c0 -11 3 -14 6 -6 3 7 2 16 -1 19 -3 4 -6 -2 -5 -13z"/>
<path d="M6219 2378 c11 -15 11 -22 -3 -45 l-17 -28 20 24 c26 28 26 35 4 52
-16 13 -17 12 -4 -3z"/>
<path d="M3355 2360 c10 -11 20 -20 23 -20 3 0 -3 9 -13 20 -10 11 -20 20 -23
20 -3 0 3 -9 13 -20z"/>
<path d="M5948 2313 c12 -2 32 -2 45 0 12 2 2 4 -23 4 -25 0 -35 -2 -22 -4z"/>
<path d="M3048 2303 c23 -2 61 -2 85 0 23 2 4 4 -43 4 -47 0 -66 -2 -42 -4z"/>
<path d="M3923 2275 c0 -22 2 -30 4 -17 2 12 2 30 0 40 -3 9 -5 -1 -4 -23z"/>
<path d="M5879 2289 l-24 -20 30 17 c39 24 40 24 28 24 -6 0 -21 -9 -34 -21z"/>
<path d="M3190 2296 c0 -2 7 -7 16 -10 8 -3 12 -2 9 4 -6 10 -25 14 -25 6z"/>
<path d="M6174 2278 l-19 -23 23 19 c21 18 27 26 19 26 -2 0 -12 -10 -23 -22z"/>
<path d="M6828 2293 c23 -2 61 -2 85 0 23 2 4 4 -43 4 -47 0 -66 -2 -42 -4z"/>
<path d="M6973 2293 c9 -2 23 -2 30 0 6 3 -1 5 -18 5 -16 0 -22 -2 -12 -5z"/>
<path d="M7047 2293 c18 -2 50 -2 70 0 21 2 7 4 -32 4 -38 0 -55 -2 -38 -4z"/>
<path d="M3230 2276 c0 -2 8 -10 18 -17 15 -13 16 -12 3 4 -13 16 -21 21 -21
13z"/>
<path d="M3423 2185 c0 -27 2 -38 4 -22 2 15 2 37 0 50 -2 12 -4 0 -4 -28z"/>
<path d="M3271 2204 c0 -11 3 -14 6 -6 3 7 2 16 -1 19 -3 4 -6 -2 -5 -13z"/>
<path d="M3923 2145 c0 -44 2 -61 4 -37 2 23 2 59 0 80 -2 20 -4 1 -4 -43z"/>
<path d="M5850 2211 c0 -6 4 -13 10 -16 6 -3 7 1 4 9 -7 18 -14 21 -14 7z"/>
<path d="M3272 2160 c0 -14 2 -19 5 -12 2 6 2 18 0 25 -3 6 -5 1 -5 -13z"/>
<path d="M5710 2143 c0 -16 48 -72 74 -84 13 -6 10 -2 -8 12 -15 12 -37 36
-47 53 -10 17 -19 26 -19 19z"/>
<path d="M5998 2123 c7 -3 16 -2 19 1 4 3 -2 6 -13 5 -11 0 -14 -3 -6 -6z"/>
<path d="M6863 2123 c48 -2 126 -2 175 0 48 1 8 3 -88 3 -96 0 -136 -2 -87 -3z"/>
<path d="M3239 2093 c-13 -16 -12 -17 4 -4 16 13 21 21 13 21 -2 0 -10 -8 -17
-17z"/>
<path d="M6091 2096 c10 -9 89 -46 89 -41 0 5 -75 45 -86 45 -4 0 -5 -2 -3 -4z"/>
<path d="M3038 2053 c23 -2 59 -2 80 0 20 2 1 4 -43 4 -44 0 -61 -2 -37 -4z"/>
<path d="M3923 2010 c0 -30 2 -43 4 -27 2 15 2 39 0 55 -2 15 -4 2 -4 -28z"/>
<path d="M5820 2040 c8 -5 20 -10 25 -10 6 0 3 5 -5 10 -8 5 -19 10 -25 10 -5
0 -3 -5 5 -10z"/>
<path d="M6190 2046 c0 -2 8 -10 18 -17 15 -13 16 -12 3 4 -13 16 -21 21 -21
13z"/>
<path d="M3772 2010 c0 -19 2 -27 5 -17 2 9 2 25 0 35 -3 9 -5 1 -5 -18z"/>
<path d="M3354 2008 l-19 -23 23 19 c12 11 22 21 22 23 0 8 -8 2 -26 -19z"/>
<path d="M6226 1997 c3 -10 9 -15 12 -12 3 3 0 11 -7 18 -10 9 -11 8 -5 -6z"/>
<path d="M6863 1993 c48 -2 126 -2 175 0 48 1 8 3 -88 3 -96 0 -136 -2 -87 -3z"/>
<path d="M6241 1954 c0 -11 3 -14 6 -6 3 7 2 16 -1 19 -3 4 -6 -2 -5 -13z"/>
<path d="M6060 1956 c0 -2 8 -10 18 -17 15 -13 16 -12 3 4 -13 16 -21 21 -21
13z"/>
<path d="M3048 1933 c29 -2 74 -2 100 0 26 2 2 3 -53 3 -55 0 -76 -1 -47 -3z"/>
<path d="M3931 1924 c0 -11 3 -14 6 -6 3 7 2 16 -1 19 -3 4 -6 -2 -5 -13z"/>
<path d="M3940 1891 c0 -6 4 -13 10 -16 6 -3 7 1 4 9 -7 18 -14 21 -14 7z"/>
<path d="M4401 1874 c0 -11 3 -14 6 -6 3 7 2 16 -1 19 -3 4 -6 -2 -5 -13z"/>
<path d="M6242 1860 c0 -14 2 -19 5 -12 2 6 2 18 0 25 -3 6 -5 1 -5 -13z"/>
<path d="M3800 1834 c0 -6 7 -19 16 -30 14 -18 14 -18 3 6 -14 31 -19 36 -19
24z"/>
<path d="M5082 1813 c48 -2 129 -2 180 0 51 1 12 3 -87 3 -99 0 -141 -2 -93
-3z"/>
<path d="M5928 1813 c7 -3 16 -2 19 1 4 3 -2 6 -13 5 -11 0 -14 -3 -6 -6z"/>
<path d="M5998 1813 c7 -3 16 -2 19 1 4 3 -2 6 -13 5 -11 0 -14 -3 -6 -6z"/>
<path d="M6873 1813 c54 -2 139 -2 190 0 51 1 7 3 -98 3 -104 0 -146 -2 -92
-3z"/>
<path d="M4073 1803 c15 -2 39 -2 55 0 15 2 2 4 -28 4 -30 0 -43 -2 -27 -4z"/>
<path d="M6216 1793 c-6 -14 -5 -15 5 -6 7 7 10 15 7 18 -3 3 -9 -2 -12 -12z"/>
<path d="M5343 1750 c0 -30 2 -43 4 -27 2 15 2 39 0 55 -2 15 -4 2 -4 -28z"/>
<path d="M7142 1775 c0 -16 2 -22 5 -12 2 9 2 23 0 30 -3 6 -5 -1 -5 -18z"/>
<path d="M5671 1776 c-10 -12 -8 -17 11 -26 20 -10 21 -10 6 3 -13 10 -15 16
-6 25 7 7 9 12 6 12 -3 0 -11 -6 -17 -14z"/>
<path d="M3870 1741 c19 -17 39 -31 44 -31 5 0 7 1 5 3 -2 2 -22 15 -44 31
l-40 27 35 -30z"/>
<path d="M6184 1748 l-19 -23 23 19 c21 18 27 26 19 26 -2 0 -12 -10 -23 -22z"/>
<path d="M4285 1719 c-16 -10 -25 -19 -19 -19 7 0 22 9 35 20 30 24 23 24 -16
-1z"/>
<path d="M4208 1683 c7 -3 16 -2 19 1 4 3 -2 6 -13 5 -11 0 -14 -3 -6 -6z"/>
<path d="M5838 1683 c7 -3 16 -2 19 1 4 3 -2 6 -13 5 -11 0 -14 -3 -6 -6z"/>
<path d="M4038 1673 c12 -2 30 -2 40 0 9 3 -1 5 -23 4 -22 0 -30 -2 -17 -4z"/>
<path d="M4138 1673 c6 -2 18 -2 25 0 6 3 1 5 -13 5 -14 0 -19 -2 -12 -5z"/>
<path d="M5898 1673 c12 -2 32 -2 45 0 12 2 2 4 -23 4 -25 0 -35 -2 -22 -4z"/>
<path d="M5983 1673 c9 -2 25 -2 35 0 9 3 1 5 -18 5 -19 0 -27 -2 -17 -5z"/>
</g>
</svg>
